<?xml version="1.0" standalone="no"?>
<!DOCTYPE svg PUBLIC "-//W3C//DTD SVG 20010904//EN"
 "http://www.w3.org/TR/2001/REC-SVG-20010904/DTD/svg10.dtd">
<svg version="1.0" xmlns="http://www.w3.org/2000/svg"
 width="866.000000pt" height="288.000000pt" viewBox="0 0 866.000000 288.000000"
 preserveAspectRatio="xMidYMid meet">

<g transform="translate(0.000000,288.000000) scale(0.100000,-0.100000)"
fill="#000000" stroke="none">
<path d="M6527 2554 c-15 -15 -28 -42 -32 -67 -3 -23 -13 -63 -21 -89 -18 -55
-8 -83 32 -98 48 -19 62 -13 60 23 -1 23 3 31 14 29 8 -1 -3 14 -24 33 -22 19
-34 35 -27 35 7 0 9 5 6 10 -4 6 -12 7 -18 4 -8 -5 -9 -4 -2 4 6 5 32 18 60
27 27 9 56 21 63 28 10 8 16 7 22 -3 6 -9 4 -17 -3 -22 -9 -6 -9 -8 1 -8 6 0
12 -7 12 -15 0 -8 -5 -15 -11 -15 -5 0 -7 5 -4 10 3 6 1 10 -6 10 -6 0 -9 -8
-6 -20 4 -17 0 -20 -24 -20 -30 0 -38 -20 -20 -48 6 -11 13 -7 30 14 12 15 25
24 29 19 4 -4 -3 -14 -15 -22 -16 -11 -23 -25 -23 -47 0 -18 3 -26 8 -19 4 7
23 11 44 10 20 -2 47 1 59 5 l24 9 -24 19 c-22 16 -25 26 -26 96 -2 73 -3 78
-33 106 -44 38 -108 40 -145 2z"/>
<path d="M7046 2441 c-16 -16 -50 -39 -77 -51 -42 -17 -49 -25 -49 -48 0 -39
14 -56 40 -49 23 6 97 -5 134 -19 18 -7 18 -6 0 22 -14 21 -19 47 -19 101 0
40 0 73 -1 73 0 0 -13 -13 -28 -29z"/>
<path d="M6578 2443 c7 -3 16 -2 19 1 4 3 -2 6 -13 5 -11 0 -14 -3 -6 -6z"/>
<path d="M6560 2415 c0 -8 3 -15 6 -15 3 0 12 7 20 15 14 13 13 15 -5 15 -12
0 -21 -6 -21 -15z"/>
<path d="M7105 2390 c-3 -5 -1 -18 4 -27 9 -16 10 -14 11 10 0 28 -5 34 -15
17z"/>
<path d="M6861 2333 c-1 -17 4 -35 9 -38 11 -7 11 9 0 45 -8 24 -8 24 -9 -7z"/>
<path d="M6630 2224 c-19 -6 -39 -9 -45 -5 -33 23 -80 -13 -56 -43 10 -12 18
-13 33 -5 27 15 31 7 19 -38 -15 -51 -14 -63 4 -63 12 0 15 13 15 61 0 69 11
70 30 4 7 -25 19 -45 26 -45 14 0 8 25 -17 72 -10 18 -9 20 6 14 21 -8 45 10
45 34 0 24 -18 28 -60 14z m23 -21 c-7 -2 -19 -2 -25 0 -7 3 -2 5 12 5 14 0
19 -2 13 -5z m-76 -9 c-3 -3 -12 -4 -19 -1 -8 3 -5 6 6 6 11 1 17 -2 13 -5z"/>
<path d="M6831 2116 c-9 -11 -9 -16 0 -22 7 -4 9 -3 5 4 -10 17 11 24 36 12
22 -11 22 -10 4 4 -24 20 -30 20 -45 2z"/>
<path d="M1733 2096 c-152 -50 -245 -169 -244 -315 0 -135 68 -214 267 -314
157 -79 184 -102 184 -155 0 -71 -56 -112 -152 -112 -48 0 -129 30 -209 79
-35 22 -67 36 -71 32 -5 -4 -33 -49 -64 -101 l-55 -94 23 -18 c38 -31 180 -95
233 -107 143 -30 277 -21 380 28 84 39 120 72 156 147 28 56 33 76 33 142 0
148 -68 225 -292 333 -78 38 -154 80 -167 93 -54 55 -15 136 73 152 41 8 141
-14 208 -46 22 -11 43 -20 47 -20 7 0 97 174 97 187 0 13 -60 44 -135 70 -87
31 -246 41 -312 19z"/>
<path d="M2260 1799 l0 -131 -45 4 -45 3 0 -87 0 -88 44 0 43 0 5 -173 c4
-159 7 -178 30 -229 52 -113 161 -151 318 -108 61 17 62 20 40 85 -27 78 -25
85 9 38 66 -92 156 -137 271 -137 79 0 127 15 185 60 l45 34 0 -40 0 -40 115
0 115 0 1 138 0 137 18 -50 c24 -71 55 -118 107 -164 61 -54 129 -76 229 -75
85 0 142 14 189 47 l29 20 -5 -57 c-8 -95 -61 -147 -157 -154 -73 -5 -126 11
-169 51 l-32 31 -96 -47 c-89 -44 -94 -48 -83 -69 26 -48 92 -107 152 -134 59
-28 68 -29 207 -29 128 0 152 3 201 23 73 29 143 91 177 156 26 49 27 57 30
250 l4 199 34 -71 c78 -162 240 -243 426 -213 89 15 148 41 203 92 77 71 77
73 -14 119 l-80 40 -51 -35 c-44 -29 -61 -35 -107 -35 -31 0 -71 7 -90 17 -39
18 -73 65 -73 101 l0 22 250 0 c160 0 250 -4 250 -10 0 -6 78 -10 215 -10
l216 0 -3 98 -3 97 -212 3 -213 2 -1 -37 -1 -38 -13 41 c-33 104 -82 163 -175
211 -51 26 -63 28 -175 28 -113 0 -123 -2 -175 -29 -80 -42 -154 -122 -182
-198 l-23 -63 -3 138 -3 137 -114 0 -115 0 0 -26 c0 -14 -3 -24 -7 -22 -137
68 -137 68 -213 68 -41 0 -91 -5 -110 -10 -94 -26 -181 -114 -219 -220 l-19
-55 -1 133 -1 132 -115 0 -115 0 0 -31 0 -30 -29 20 c-64 46 -113 61 -201 61
-107 0 -173 -28 -242 -102 l-48 -50 0 65 0 66 -67 3 -68 3 -3 128 -3 127 -119
0 -120 0 0 -131z m2393 -276 c23 -12 57 -64 57 -88 0 -3 -61 -5 -135 -5 -74 0
-135 2 -135 5 0 21 32 76 51 86 58 31 105 31 162 2z m-2033 -30 c0 -5 -7 -30
-15 -57 -17 -56 -19 -132 -5 -191 11 -45 -4 -65 -46 -65 -44 0 -54 32 -54 182
l0 138 60 0 c33 0 60 -3 60 -7z m477 -29 c44 -33 63 -73 63 -131 0 -65 -27
-112 -80 -140 -54 -29 -101 -29 -157 -2 -59 29 -87 82 -81 156 6 65 29 100 89
131 55 29 117 24 166 -14z m793 7 c46 -33 70 -80 70 -135 0 -70 -26 -115 -81
-144 -126 -66 -262 38 -235 180 19 102 163 160 246 99z"/>
<path d="M5458 1803 l-3 -128 -47 -3 -48 -3 0 -85 0 -84 50 0 50 0 0 -169 c0
-178 8 -222 51 -282 43 -61 142 -89 245 -69 32 6 116 11 187 10 l127 -1 0 213
c0 194 2 216 20 245 10 18 33 39 49 48 39 19 110 19 139 -1 47 -33 52 -58 52
-289 0 -145 3 -215 11 -215 5 0 7 -6 3 -12 -4 -7 -3 -10 1 -5 5 4 10 17 12 29
5 32 7 32 51 3 41 -27 50 -29 120 -19 l42 6 -1 242 0 241 -25 -65 c-14 -36
-27 -72 -30 -80 -4 -11 -19 -15 -54 -15 -28 0 -50 0 -50 1 0 0 11 38 25 84 14
46 25 92 25 102 0 10 6 18 13 19 6 0 -12 9 -40 20 -57 22 -61 29 -44 100 8 37
8 37 -28 43 -62 10 -150 7 -184 -7 -18 -8 -46 -26 -63 -40 -40 -34 -44 -34
-44 3 l0 30 -117 1 c-65 0 -149 1 -188 2 l-70 2 -3 128 -3 127 -114 0 -114 0
-3 -127z m371 -490 c-1 -147 -3 -180 -11 -150 -8 30 -14 37 -27 31 -34 -14
-57 -15 -76 0 -18 13 -20 28 -23 160 l-3 146 70 0 71 0 -1 -187z"/>
<path d="M6482 1600 c0 -14 2 -19 5 -12 2 6 2 18 0 25 -3 6 -5 1 -5 -13z"/>
<path d="M6613 1475 c0 -22 2 -30 4 -17 2 12 2 30 0 40 -3 9 -5 -1 -4 -23z"/>
<path d="M6498 1423 c7 -3 16 -2 19 1 4 3 -2 6 -13 5 -11 0 -14 -3 -6 -6z"/>
<path d="M6601 1354 c0 -11 3 -14 6 -6 3 7 2 16 -1 19 -3 4 -6 -2 -5 -13z"/>
<path d="M6591 1200 c-1 -69 -3 -141 -5 -160 -2 -19 -1 -27 1 -17 2 9 13 17
24 17 10 0 19 5 19 11 0 5 5 7 11 3 8 -4 7 -9 -2 -16 -11 -8 -11 -11 -1 -15 7
-2 19 -12 28 -21 9 -8 29 -16 45 -16 l29 -1 -23 17 c-21 17 -34 22 -49 19 -5
0 -7 2 -6 7 0 4 -2 15 -6 24 -7 16 1 100 20 211 l7 37 -41 0 c-23 0 -43 5 -45
13 -3 6 -6 -44 -6 -113z"/>
<path d="M6500 977 c0 -2 11 -13 25 -25 14 -12 25 -18 25 -13 0 5 -11 16 -25
25 -14 9 -25 15 -25 13z"/>
<path d="M6623 963 c9 -2 23 -2 30 0 6 3 -1 5 -18 5 -16 0 -22 -2 -12 -5z"/>
<path d="M6685 960 c-18 -8 -17 -9 8 -9 16 -1 26 3 22 9 -3 6 -7 10 -8 9 -1 0
-11 -4 -22 -9z"/>
<path d="M6390 958 c3 -3 21 -10 40 -17 19 -6 30 -7 25 -2 -6 5 -23 13 -40 17
-16 4 -28 5 -25 2z"/>
<path d="M6748 943 c7 -3 16 -2 19 1 4 3 -2 6 -13 5 -11 0 -14 -3 -6 -6z"/>
</g>
</svg>
